<mxfile host="app.diagrams.net" modified="2022-07-10T05:23:52.361Z" agent="5.0 (Windows NT 10.0; Win64; x64) AppleWebKit/537.36 (KHTML, like Gecko) Chrome/103.0.5060.114 Safari/537.36 Edg/103.0.1264.49" etag="kXJafrUUYj1ibB4J2Rl1" version="20.0.4" type="github">
  <diagram id="aL3t4iC1Zu5zLMFVuwje">
    <mxGraphModel dx="871" dy="536" grid="1" gridSize="10" guides="1" tooltips="1" connect="1" arrows="1" fold="1" page="1" pageScale="1" pageWidth="827" pageHeight="1169" math="0" shadow="0">
      <root>
        <mxCell id="0" />
        <mxCell id="1" parent="0" />
      </root>
    </mxGraphModel>
  </diagram>
</mxfile>
